<svg id="SvgjsSvg1117" width="288" height="288" xmlns="http://www.w3.org/2000/svg" version="1.1" xmlns:xlink="http://www.w3.org/1999/xlink" xmlns:svgjs="http://svgjs.com/svgjs"><defs id="SvgjsDefs1118"></defs><g id="SvgjsG1119"><svg xmlns="http://www.w3.org/2000/svg" xmlns:xlink="http://www.w3.org/1999/xlink" aria-label="PHP" viewBox="0 0 512 512" width="288" height="288"><rect width="512" height="512" fill="#5068a9" rx="15%" class="color777bb3 svgShape"></rect><g stroke="#f8f8f8" stroke-width="6" class="colorStrokefff svgStroke"><path id="a" d="M155 202H97a3 3 0 0 0-3 2L67 345c0 3 3 3 3 3h30c3 0 3-2 3-2l7-35h27c42 0 63-28 68-53s1-56-50-56zm13 54c-4 19-17 27-35 27h-18l11-53h18c27 0 26 10 24 26z" fill="#324e7b" class="color000 svgShape"></path><path d="M275 311c-4 0-3-4-3-4l12-61c0-8 6-16-18-15h-18l-15 78s0 3-4 3h-29c-3 0-3-3-3-3l28-141s0-2 4-2h30c3 0 2 3 2 3l-7 34h26c36 0 45 17 42 37l-13 69s0 3-5 3z" fill="#324e7b" class="color000 svgShape"></path><use x="239" xlink:href="#a"></use></g></svg></g></svg>